<?xml version="1.0" standalone="no"?><!DOCTYPE svg PUBLIC "-//W3C//DTD SVG 1.1//EN" "http://www.w3.org/Graphics/SVG/1.1/DTD/svg11.dtd"><svg class="icon" width="200px" height="200.00px" viewBox="0 0 1024 1024" version="1.1" xmlns="http://www.w3.org/2000/svg"><path fill="#515151" d="M631.466667 750.933333c20.48 0 34.133333-13.653333 34.133333-34.133333v-238.933333c0-20.48-13.653333-34.133333-34.133333-34.133334s-34.133333 13.653333-34.133334 34.133334v238.933333c0 20.48 13.653333 34.133333 34.133334 34.133333z m-204.8 0c20.48 0 34.133333-13.653333 34.133333-34.133333v-238.933333c0-20.48-13.653333-34.133333-34.133333-34.133334s-34.133333 13.653333-34.133334 34.133334v238.933333c0 20.48 13.653333 34.133333 34.133334 34.133333z m512-512h-238.933334V136.533333c0-37.546667-30.72-68.266667-68.266666-68.266666h-204.8c-37.546667 0-68.266667 30.72-68.266667 68.266666v102.4h-238.933333c-20.48 0-34.133333 13.653333-34.133334 34.133334s13.653333 34.133333 34.133334 34.133333h68.266666v512c0 75.093333 61.44 136.533333 136.533334 136.533333h409.6c75.093333 0 136.533333-61.44 136.533333-136.533333V307.2h68.266667c20.48 0 34.133333-13.653333 34.133333-34.133333s-13.653333-34.133333-34.133333-34.133334z m-512-102.4h204.8v102.4h-204.8V136.533333z m375.466666 682.666667c0 37.546667-30.72 68.266667-68.266666 68.266667h-409.6c-37.546667 0-68.266667-30.72-68.266667-68.266667V307.2h546.133333v512z"  /></svg>