<?xml version="1.0" standalone="no"?><!DOCTYPE svg PUBLIC "-//W3C//DTD SVG 1.1//EN" "http://www.w3.org/Graphics/SVG/1.1/DTD/svg11.dtd"><svg class="icon" width="200px" height="200.00px" viewBox="0 0 1024 1024" version="1.1" xmlns="http://www.w3.org/2000/svg"><path fill="#515151" d="M1024 364.487111L662.584889 0l-77.425778 78.108444-34.417778-34.702222-481.848889 494.648889 34.360889 34.702222-51.598222 34.702223c-68.835556 69.404444-68.835556 173.511111 0 242.972444l120.433778 121.514667c68.835556 69.404444 172.088889 69.404444 240.981333 0l43.008-43.406223 34.417778 34.702223 490.496-494.648889-34.417778-25.998222L1024 364.487111z m-361.415111-303.786667l301.169778 303.786667-51.598223 52.053333-301.226666-312.376888 51.655111-43.406223zM404.48 928.597333a149.731556 149.731556 0 0 1-215.096889 0l-94.663111-95.459555a152.803556 152.803556 0 0 1 0-216.917334l34.417778-17.408 301.169778 303.786667-25.827556 25.998222z" /></svg>