<?xml version="1.0" standalone="no"?><!DOCTYPE svg PUBLIC "-//W3C//DTD SVG 1.1//EN" "http://www.w3.org/Graphics/SVG/1.1/DTD/svg11.dtd"><svg t="1558491888765" class="icon" style="" viewBox="0 0 1208 1200" version="1.1" xmlns="http://www.w3.org/2000/svg" p-id="14524" xmlns:xlink="http://www.w3.org/1999/xlink" width="201.3671875" height="200"><defs><style type="text/css"></style></defs><path d="M1014.579737 941.394625l-46.089347-250.239802a63.000846 63.000846 0 0 0-17.41538-33.177402L319.696621 26.614779a63.000846 63.000846 0 0 0-89.186901 0L26.343518 230.78098a63.11107 63.11107 0 0 0 0 89.202648l631.394135 631.33115a62.9851 62.9851 0 0 0 33.145909 17.431127l250.255548 46.089346a63.016593 63.016593 0 0 0 73.440627-73.440626zM734.721191 912.704912l177.728206-177.728206 13.604782 73.881522-117.435719 117.435719-73.897269-13.589035zM70.936969 275.374431l46.042108-46.042108 446.375404 446.375404a20.989785 20.989785 0 0 0 29.728967 0 21.005531 21.005531 0 0 0 0-29.713221L146.708044 199.603356l49.159871-49.144124 92.635336 92.635336c4.094031 4.125524 9.479258 6.156794 14.864483 6.156793a20.989785 20.989785 0 0 0 14.848737-35.870014l-92.619589-92.666829 49.506289-49.506288 620.84413 620.84413-49.537781 49.506289L397.278518 292.427647a21.021277 21.021277 0 0 0-29.744713 29.713221l449.162494 449.162494-49.15987 49.144125-95.406681-95.406681a21.037023 21.037023 0 0 0-29.744713 29.728968l95.438173 95.390934-46.042108 46.026361L70.936969 275.374431z m787.880616 660.178326l76.479657-76.479658 17.28941 93.769068-93.769067-17.28941z" p-id="14525" fill=""></path></svg>
