<?xml version="1.0" standalone="no"?><!DOCTYPE svg PUBLIC "-//W3C//DTD SVG 1.1//EN" "http://www.w3.org/Graphics/SVG/1.1/DTD/svg11.dtd"><svg t="1559560679969" class="icon" style="" viewBox="0 0 1024 1024" version="1.1" xmlns="http://www.w3.org/2000/svg" p-id="7769" xmlns:xlink="http://www.w3.org/1999/xlink" width="200" height="200"><defs><style type="text/css"></style></defs><path d="M810.666667 85.333333H213.333333a128 128 0 0 0-128 128v597.333334a128 128 0 0 0 128 128h597.333334a119.893333 119.893333 0 0 0 20.906666-2.133334l12.8-2.986666H849.493333l15.786667-5.973334 5.546667-2.986666c4.266667-2.56 8.96-4.693333 13.226666-7.68a161.706667 161.706667 0 0 0 16.213334-13.653334l2.986666-3.84a114.773333 114.773333 0 0 0 11.52-13.653333l3.84-5.546667a98.56 98.56 0 0 0 7.68-14.933333 42.666667 42.666667 0 0 0 2.986667-6.4c2.133333-5.12 3.413333-10.666667 5.12-16.213333v-6.4a110.933333 110.933333 0 0 0 4.266667-25.6V213.333333a128 128 0 0 0-128-128zM213.333333 853.333333a42.666667 42.666667 0 0 1-42.666666-42.666666v-183.893334l140.373333-140.8a42.666667 42.666667 0 0 1 60.586667 0l366.933333 367.36z m640-42.666666a42.666667 42.666667 0 0 1-2.986666 15.36 42.666667 42.666667 0 0 1-3.413334 5.973333 40.106667 40.106667 0 0 1-3.84 5.12l-228.266666-228.266667 37.546666-37.546666a42.666667 42.666667 0 0 1 60.586667 0l140.373333 140.8z m0-219.306667L773.12 512a131.413333 131.413333 0 0 0-180.906667 0l-37.546666 37.546667L431.786667 426.666667a131.413333 131.413333 0 0 0-180.906667 0L170.666667 506.026667V213.333333a42.666667 42.666667 0 0 1 42.666666-42.666666h597.333334a42.666667 42.666667 0 0 1 42.666666 42.666666z" p-id="7770" fill=""></path></svg>
