<?xml version="1.0" standalone="no"?><!DOCTYPE svg PUBLIC "-//W3C//DTD SVG 1.1//EN" "http://www.w3.org/Graphics/SVG/1.1/DTD/svg11.dtd"><svg class="icon" width="200px" height="200.00px" viewBox="0 0 1024 1024" version="1.1" xmlns="http://www.w3.org/2000/svg"><path fill="#515151" d="M452.266667 999.68L16.725333 564.224l70.4-70.4h730.197334l70.4 70.4-435.541334 435.456z m0 16.64l-8.448-8.277333L0 564.138667l8.277333-8.362667 443.904-443.904 8.362667 8.277333L904.533333 564.053333l-8.277333 8.362667-444.074667 443.904zM33.28 564.224l418.816 418.730667 418.986667-418.730667-418.986667-418.986667-418.816 418.986667zM340.48 0l173.909333 173.994667-16.725333 16.725333L323.669333 16.896 340.394667 0z m640.170667 793.258667a77.909333 77.909333 0 0 1-155.818667 0c0-43.008 77.909333-147.370667 77.909333-147.370667s77.824 104.448 77.824 147.370667z" /></svg>