<?xml version="1.0" standalone="no"?><!DOCTYPE svg PUBLIC "-//W3C//DTD SVG 1.1//EN" "http://www.w3.org/Graphics/SVG/1.1/DTD/svg11.dtd"><svg t="1558491722716" class="icon" style="" viewBox="0 0 1024 1024" version="1.1" xmlns="http://www.w3.org/2000/svg" p-id="12073" xmlns:xlink="http://www.w3.org/1999/xlink" width="200" height="200"><defs><style type="text/css"></style></defs><path d="M846.265 960.708h-672.09c-60.993 0-110.614-49.622-110.614-110.615v-672.09c0-60.993 49.621-110.615 110.614-110.615h672.09c60.996 0 110.614 49.622 110.614 110.614v672.09c0.001 60.994-49.618 110.616-110.614 110.616z m-672.09-840.113c-31.654 0-57.407 25.753-57.407 57.407v672.09c0 31.654 25.753 57.407 57.407 57.407h672.09c31.657 0 57.407-25.753 57.407-57.407v-672.09c0-31.654-25.75-57.407-57.407-57.407h-672.09z" p-id="12074" fill=""></path></svg>
