<?xml version="1.0" standalone="no"?><!DOCTYPE svg PUBLIC "-//W3C//DTD SVG 1.1//EN" "http://www.w3.org/Graphics/SVG/1.1/DTD/svg11.dtd"><svg class="icon" width="200px" height="200.00px" viewBox="0 0 1024 1024" version="1.1" xmlns="http://www.w3.org/2000/svg"><path fill="#515151" d="M531.405341 544.165565l-55.78098-31.372551 31.372551-55.782981 55.780981 31.372552zM698.764283 638.435222l67.969195 38.208672L352.006188 909.927995v-466.568202l67.841192 38.144671 31.392552-55.74498L288.005063 333.91787v685.452049l609.29071-342.726025-167.170939-94.017653zM587.184322 575.72812l31.360551-55.78898 55.788981 31.360551-31.360552 55.78898zM64.001125 260.636582h448.007875v128.00225h64.001125v-192.003376H0v576.010126h224.003938v-64.001125H64.001125zM953.262757 134.424363A336.003906 336.003906 0 0 0 688.012094 4.632081a334.237875 334.237875 0 0 0-229.956042 90.945599l43.904772 46.65682c109.457924-102.889809 281.59895-97.565715 384.488758 11.892209 102.889809 109.457924 97.565715 281.59895-11.892209 384.488759a271.720776 271.720776 0 0 1-19.598344 16.746294l39.232689 50.560889c146.512575-113.890002 172.95904-324.985713 59.071039-471.498288z" /></svg>